<svg width="784" height="40" viewBox="0 0 784 40" fill="none" xmlns="http://www.w3.org/2000/svg">
<path d="M8.12793 39H0.823242L17.1245 0.59668H24.7783L41.4287 39H33.7749L29.3975 28.5264H16.6411L19.085 22.3496H26.8193L20.7769 7.92822L8.12793 39ZM46.1284 39V0.59668H64.1216C71.4263 0.59668 75.0786 3.57764 75.0786 9.53955C75.0786 13.908 72.6974 17.0322 67.9351 18.9121C73.0197 19.861 75.562 22.7703 75.562 27.6401C75.562 35.2134 71.5605 39 63.5576 39H46.1284ZM63.2622 32.8232C66.4132 32.8232 67.9888 31.2119 67.9888 27.9893C67.9888 23.9967 65.6344 22.0005 60.9258 22.0005H58.7773V17.4082C64.6855 16.4235 67.6396 13.9528 67.6396 9.99609C67.6396 7.84766 66.3148 6.77344 63.665 6.77344H53.2451V32.8232H63.2622ZM81.6313 23.9072V0.59668H88.748V23.9072C88.748 30.0303 91.8812 33.0918 98.1475 33.0918C104.414 33.0918 107.547 30.0303 107.547 23.9072V0.59668H114.664V23.9072C114.664 34.1481 109.158 39.2686 98.1475 39.2686C87.1367 39.2686 81.6313 34.1481 81.6313 23.9072ZM122.72 39V0.59668H129.837L150.113 28.5801V0.59668H156.961V39H149.844L129.568 10.4258V39H122.72ZM180.083 32.8232C188.051 32.8232 192.034 28.1325 192.034 18.751C192.034 10.766 188.051 6.77344 180.083 6.77344H172.161V32.8232H180.083ZM165.044 39V0.59668H180.083C192.795 0.59668 199.151 6.64811 199.151 18.751C199.151 32.2503 192.795 39 180.083 39H165.044ZM212.337 0.59668V39H205.22V0.59668H212.337ZM226.463 19.6909C226.463 28.6248 230.429 33.0918 238.36 33.0918C246.094 33.0918 249.961 28.6248 249.961 19.6909C249.961 10.9002 246.094 6.50488 238.36 6.50488C230.429 6.50488 226.463 10.9002 226.463 19.6909ZM219.078 19.8521C219.078 6.8361 225.505 0.328125 238.36 0.328125C251.018 0.328125 257.347 6.8361 257.347 19.8521C257.347 32.7964 251.018 39.2686 238.36 39.2686C226.078 39.2686 219.651 32.7964 219.078 19.8521ZM275.501 37.3887V30.9434C279.35 32.3757 283.701 33.0918 288.553 33.0918C294.443 33.0918 297.388 31.1224 297.388 27.1836C297.388 24.319 295.58 22.8867 291.963 22.8867H285.948C278.088 22.8867 274.158 19.306 274.158 12.1445C274.158 4.26693 279.753 0.328125 290.943 0.328125C295.24 0.328125 299.313 0.954753 303.162 2.20801V8.65332C299.313 7.22103 295.24 6.50488 290.943 6.50488C284.498 6.50488 281.275 8.38477 281.275 12.1445C281.275 15.0091 282.833 16.4414 285.948 16.4414H291.963C300.324 16.4414 304.505 20.0221 304.505 27.1836C304.505 35.2402 299.188 39.2686 288.553 39.2686C283.701 39.2686 279.35 38.6419 275.501 37.3887ZM314.495 39H307.19L323.492 0.59668H331.146L347.796 39H340.142L335.765 28.5264H323.008L325.452 22.3496H333.187L327.144 7.92822L314.495 39ZM383.111 37.2275C380.014 38.5882 376.137 39.2686 371.482 39.2686C357.929 39.2686 351.153 32.5994 351.153 19.2612C351.153 6.63916 358.046 0.328125 371.832 0.328125C376.039 0.328125 379.799 0.954753 383.111 2.20801V8.65332C379.799 7.22103 376.218 6.50488 372.369 6.50488C363.148 6.50488 358.538 10.757 358.538 19.2612C358.538 28.4816 362.889 33.0918 371.59 33.0918C372.879 33.0918 374.347 32.877 375.994 32.4473V21.2754H383.111V37.2275ZM393.772 39H386.468L402.769 0.59668H410.423L427.073 39H419.419L415.042 28.5264H402.286L404.729 22.3496H412.464L406.421 7.92822L393.772 39ZM431.102 37.3887V30.9434C434.951 32.3757 439.301 33.0918 444.153 33.0918C450.044 33.0918 452.989 31.1224 452.989 27.1836C452.989 24.319 451.181 22.8867 447.564 22.8867H441.548C433.689 22.8867 429.759 19.306 429.759 12.1445C429.759 4.26693 435.354 0.328125 446.543 0.328125C450.84 0.328125 454.913 0.954753 458.763 2.20801V8.65332C454.913 7.22103 450.84 6.50488 446.543 6.50488C440.098 6.50488 436.875 8.38477 436.875 12.1445C436.875 15.0091 438.433 16.4414 441.548 16.4414H447.564C455.925 16.4414 460.105 20.0221 460.105 27.1836C460.105 35.2402 454.788 39.2686 444.153 39.2686C439.301 39.2686 434.951 38.6419 431.102 37.3887ZM491.258 0.59668V6.77344H480.247V39H473.13V6.77344H462.12V0.59668H491.258ZM521.604 0.59668V6.71973H502.376V16.3877H520.691V22.7524H502.295V32.8232H521.98V39H495.313V0.59668H521.604ZM559.175 37.2275C556.078 38.5882 552.202 39.2686 547.547 39.2686C533.994 39.2686 527.217 32.5994 527.217 19.2612C527.217 6.63916 534.11 0.328125 547.896 0.328125C552.103 0.328125 555.863 0.954753 559.175 2.20801V8.65332C555.863 7.22103 552.282 6.50488 548.433 6.50488C539.213 6.50488 534.603 10.757 534.603 19.2612C534.603 28.4816 538.953 33.0918 547.654 33.0918C548.943 33.0918 550.411 32.877 552.059 32.4473V21.2754H559.175V37.2275ZM565.889 23.9072V0.59668H573.006V23.9072C573.006 30.0303 576.139 33.0918 582.405 33.0918C588.672 33.0918 591.805 30.0303 591.805 23.9072V0.59668H598.921V23.9072C598.921 34.1481 593.416 39.2686 582.405 39.2686C571.395 39.2686 565.889 34.1481 565.889 23.9072ZM614.095 0.59668V39H606.978V0.59668H614.095ZM638.211 39H630.906L647.208 0.59668H654.861L671.512 39H663.858L659.48 28.5264H646.724L649.168 22.3496H656.902L650.86 7.92822L638.211 39ZM683.328 0.59668V32.8232H698.582V39H676.211V0.59668H683.328ZM741.9 0.59668L725.062 39H717.408L701.294 0.59668H709.754L721.651 30.0034L733.521 0.59668H741.9ZM749.876 39H742.571L758.873 0.59668H766.526L783.177 39H775.523L771.146 28.5264H758.389L760.833 22.3496H768.567L762.525 7.92822L749.876 39Z" fill="url(#paint0_linear_49_23)"/>
<path d="M8.12793 39H0.823242L17.1245 0.59668H24.7783L41.4287 39H33.7749L29.3975 28.5264H16.6411L19.085 22.3496H26.8193L20.7769 7.92822L8.12793 39ZM46.1284 39V0.59668H64.1216C71.4263 0.59668 75.0786 3.57764 75.0786 9.53955C75.0786 13.908 72.6974 17.0322 67.9351 18.9121C73.0197 19.861 75.562 22.7703 75.562 27.6401C75.562 35.2134 71.5605 39 63.5576 39H46.1284ZM63.2622 32.8232C66.4132 32.8232 67.9888 31.2119 67.9888 27.9893C67.9888 23.9967 65.6344 22.0005 60.9258 22.0005H58.7773V17.4082C64.6855 16.4235 67.6396 13.9528 67.6396 9.99609C67.6396 7.84766 66.3148 6.77344 63.665 6.77344H53.2451V32.8232H63.2622ZM81.6313 23.9072V0.59668H88.748V23.9072C88.748 30.0303 91.8812 33.0918 98.1475 33.0918C104.414 33.0918 107.547 30.0303 107.547 23.9072V0.59668H114.664V23.9072C114.664 34.1481 109.158 39.2686 98.1475 39.2686C87.1367 39.2686 81.6313 34.1481 81.6313 23.9072ZM122.72 39V0.59668H129.837L150.113 28.5801V0.59668H156.961V39H149.844L129.568 10.4258V39H122.72ZM180.083 32.8232C188.051 32.8232 192.034 28.1325 192.034 18.751C192.034 10.766 188.051 6.77344 180.083 6.77344H172.161V32.8232H180.083ZM165.044 39V0.59668H180.083C192.795 0.59668 199.151 6.64811 199.151 18.751C199.151 32.2503 192.795 39 180.083 39H165.044ZM212.337 0.59668V39H205.22V0.59668H212.337ZM226.463 19.6909C226.463 28.6248 230.429 33.0918 238.36 33.0918C246.094 33.0918 249.961 28.6248 249.961 19.6909C249.961 10.9002 246.094 6.50488 238.36 6.50488C230.429 6.50488 226.463 10.9002 226.463 19.6909ZM219.078 19.8521C219.078 6.8361 225.505 0.328125 238.36 0.328125C251.018 0.328125 257.347 6.8361 257.347 19.8521C257.347 32.7964 251.018 39.2686 238.36 39.2686C226.078 39.2686 219.651 32.7964 219.078 19.8521ZM275.501 37.3887V30.9434C279.35 32.3757 283.701 33.0918 288.553 33.0918C294.443 33.0918 297.388 31.1224 297.388 27.1836C297.388 24.319 295.58 22.8867 291.963 22.8867H285.948C278.088 22.8867 274.158 19.306 274.158 12.1445C274.158 4.26693 279.753 0.328125 290.943 0.328125C295.24 0.328125 299.313 0.954753 303.162 2.20801V8.65332C299.313 7.22103 295.24 6.50488 290.943 6.50488C284.498 6.50488 281.275 8.38477 281.275 12.1445C281.275 15.0091 282.833 16.4414 285.948 16.4414H291.963C300.324 16.4414 304.505 20.0221 304.505 27.1836C304.505 35.2402 299.188 39.2686 288.553 39.2686C283.701 39.2686 279.35 38.6419 275.501 37.3887ZM314.495 39H307.19L323.492 0.59668H331.146L347.796 39H340.142L335.765 28.5264H323.008L325.452 22.3496H333.187L327.144 7.92822L314.495 39ZM383.111 37.2275C380.014 38.5882 376.137 39.2686 371.482 39.2686C357.929 39.2686 351.153 32.5994 351.153 19.2612C351.153 6.63916 358.046 0.328125 371.832 0.328125C376.039 0.328125 379.799 0.954753 383.111 2.20801V8.65332C379.799 7.22103 376.218 6.50488 372.369 6.50488C363.148 6.50488 358.538 10.757 358.538 19.2612C358.538 28.4816 362.889 33.0918 371.59 33.0918C372.879 33.0918 374.347 32.877 375.994 32.4473V21.2754H383.111V37.2275ZM393.772 39H386.468L402.769 0.59668H410.423L427.073 39H419.419L415.042 28.5264H402.286L404.729 22.3496H412.464L406.421 7.92822L393.772 39ZM431.102 37.3887V30.9434C434.951 32.3757 439.301 33.0918 444.153 33.0918C450.044 33.0918 452.989 31.1224 452.989 27.1836C452.989 24.319 451.181 22.8867 447.564 22.8867H441.548C433.689 22.8867 429.759 19.306 429.759 12.1445C429.759 4.26693 435.354 0.328125 446.543 0.328125C450.84 0.328125 454.913 0.954753 458.763 2.20801V8.65332C454.913 7.22103 450.84 6.50488 446.543 6.50488C440.098 6.50488 436.875 8.38477 436.875 12.1445C436.875 15.0091 438.433 16.4414 441.548 16.4414H447.564C455.925 16.4414 460.105 20.0221 460.105 27.1836C460.105 35.2402 454.788 39.2686 444.153 39.2686C439.301 39.2686 434.951 38.6419 431.102 37.3887ZM491.258 0.59668V6.77344H480.247V39H473.13V6.77344H462.12V0.59668H491.258ZM521.604 0.59668V6.71973H502.376V16.3877H520.691V22.7524H502.295V32.8232H521.98V39H495.313V0.59668H521.604ZM559.175 37.2275C556.078 38.5882 552.202 39.2686 547.547 39.2686C533.994 39.2686 527.217 32.5994 527.217 19.2612C527.217 6.63916 534.11 0.328125 547.896 0.328125C552.103 0.328125 555.863 0.954753 559.175 2.20801V8.65332C555.863 7.22103 552.282 6.50488 548.433 6.50488C539.213 6.50488 534.603 10.757 534.603 19.2612C534.603 28.4816 538.953 33.0918 547.654 33.0918C548.943 33.0918 550.411 32.877 552.059 32.4473V21.2754H559.175V37.2275ZM565.889 23.9072V0.59668H573.006V23.9072C573.006 30.0303 576.139 33.0918 582.405 33.0918C588.672 33.0918 591.805 30.0303 591.805 23.9072V0.59668H598.921V23.9072C598.921 34.1481 593.416 39.2686 582.405 39.2686C571.395 39.2686 565.889 34.1481 565.889 23.9072ZM614.095 0.59668V39H606.978V0.59668H614.095ZM638.211 39H630.906L647.208 0.59668H654.861L671.512 39H663.858L659.48 28.5264H646.724L649.168 22.3496H656.902L650.86 7.92822L638.211 39ZM683.328 0.59668V32.8232H698.582V39H676.211V0.59668H683.328ZM741.9 0.59668L725.062 39H717.408L701.294 0.59668H709.754L721.651 30.0034L733.521 0.59668H741.9ZM749.876 39H742.571L758.873 0.59668H766.526L783.177 39H775.523L771.146 28.5264H758.389L760.833 22.3496H768.567L762.525 7.92822L749.876 39Z" fill="white" fill-opacity="0.4"/>
<defs>
<linearGradient id="paint0_linear_49_23" x1="784" y1="20" x2="0" y2="20" gradientUnits="userSpaceOnUse">
<stop stop-color="#4EFF95"/>
<stop offset="0.333" stop-color="#8EFF49"/>
<stop offset="0.66666" stop-color="#FFA34E"/>
<stop offset="1" stop-color="#FF3E3E"/>
</linearGradient>
</defs>
</svg>
