<svg width="958" height="424" viewBox="0 0 958 424" fill="none" xmlns="http://www.w3.org/2000/svg">
<g filter="url(#filter0_dddd_40_11)">
<path fill-rule="evenodd" clip-rule="evenodd" d="M70 354H147.762L154.524 317.655H239.048L244.964 354H322.726L266.94 70H125.991C125.827 70 88.5952 259.333 70 354ZM226.369 252.571H167.202L186.643 131.702H206.083L226.369 252.571Z" fill="url(#paint0_linear_40_11)"/>
<path d="M154.524 315.155H152.446L152.066 317.197L145.684 351.5H73.0389C82.3299 304.202 95.9495 234.919 107.36 176.983C113.186 147.4 118.437 120.776 122.24 101.548C124.142 91.9334 125.682 84.1694 126.752 78.8096C127.287 76.1292 127.704 74.0524 127.989 72.6468C127.999 72.597 128.009 72.5481 128.019 72.5H264.884L319.687 351.5H247.09L241.515 317.253L241.174 315.155H239.048H154.524ZM226.369 255.071H229.324L228.835 252.158L208.549 131.289L208.199 129.202H206.083H186.643H184.513L184.175 131.305L164.734 252.174L164.268 255.071H167.202H226.369Z" stroke="#1D1D20" stroke-opacity="0.3" stroke-width="5"/>
</g>
<g filter="url(#filter1_dddd_40_11)">
<path d="M574.576 82.9748L568.896 138.965L567.049 138.773C499.813 131.768 449.624 126.539 451.222 151.137C451.628 157.396 456.917 160.797 462.581 163.309C468.919 166.575 475.475 169.048 481.244 171.017C525.58 186.157 554.556 198.444 568.881 218.487C578.263 233.48 580.213 247.185 580.239 267.986C579.383 293.365 573.344 311.121 546.158 334.525C518.431 350.45 503.723 353.119 477.996 354C439.426 351.893 418.401 347.968 381.433 338.582L388.736 283.404C467.674 293.448 506.813 296.637 506.397 268.797C504.674 257.03 496.306 253.946 481.242 248.511C417.208 226.176 386.854 211.35 378.592 170.612C376.228 141.856 377.769 125.562 395.229 100.827C432.631 64.0001 475.062 62.9886 574.576 82.9748Z" fill="url(#paint1_linear_40_11)"/>
<path d="M508.896 268.76L508.894 268.597L508.87 268.435C507.908 261.859 505 257.539 500.252 254.229C495.742 251.085 489.542 248.848 482.149 246.181L482.09 246.159L482.078 246.155L482.065 246.151C450.008 234.969 426.734 225.777 410.432 214.412C394.344 203.196 385.084 189.885 381.072 170.259C379.905 156.004 379.736 145.081 381.922 134.728C384.095 124.439 388.633 114.54 397.142 102.451C415.38 84.5514 434.759 75.3889 461.822 73.0869C488.745 70.797 523.277 75.2946 571.86 84.9808L566.662 136.219C533.392 132.753 504.061 129.71 483.215 130.606C472.76 131.056 464.078 132.502 458.043 135.622C454.984 137.203 452.499 139.268 450.852 141.947C449.194 144.645 448.499 147.783 448.727 151.299C449.235 159.124 455.87 163.06 461.5 165.564C467.976 168.895 474.638 171.404 480.436 173.383C502.595 180.95 520.774 187.758 535.177 195.139C549.543 202.501 559.965 210.34 566.803 219.879C575.778 234.252 577.711 247.385 577.739 267.945C577.315 280.434 575.62 290.825 570.815 300.922C566.019 310.998 558.03 320.978 544.707 332.476C531.057 340.301 520.71 344.809 510.682 347.489C500.627 350.176 490.771 351.058 478.021 351.498C440.473 349.441 419.69 345.658 384.203 336.705L390.888 286.197C429.046 291.033 458.018 294.219 477.506 292.8C487.445 292.077 495.329 290.136 500.741 286.272C506.354 282.264 509.011 276.408 508.896 268.76Z" stroke="#1D1D20" stroke-opacity="0.3" stroke-width="5"/>
</g>
<g filter="url(#filter2_dddd_40_11)">
<path fill-rule="evenodd" clip-rule="evenodd" d="M635.239 354H713.001L719.763 317.655H804.286L810.203 354H887.965L832.179 70H691.23C691.066 70 653.834 259.333 635.239 354ZM791.608 252.571H732.441L751.882 131.702H771.322L791.608 252.571Z" fill="url(#paint2_linear_40_11)"/>
<path d="M710.923 351.5H638.278C647.569 304.202 661.188 234.919 672.599 176.983C678.425 147.4 683.675 120.776 687.479 101.548C689.381 91.9334 690.921 84.1694 691.991 78.8096C692.526 76.1292 692.943 74.0524 693.228 72.6468C693.238 72.597 693.248 72.5481 693.258 72.5H693.259H693.349H693.441H693.535H693.631H693.728H693.828H693.929H694.032H694.137H694.243H694.352H694.462H694.574H694.688H694.804H694.921H695.041H695.162H695.284H695.409H695.535H695.663H695.793H695.924H696.057H696.192H696.329H696.467H696.607H696.748H696.892H697.037H697.183H697.332H697.482H697.633H697.786H697.941H698.098H698.256H698.416H698.577H698.74H698.904H699.071H699.238H699.408H699.579H699.751H699.925H700.101H700.278H700.456H700.637H700.818H701.001H701.186H701.373H701.56H701.75H701.94H702.133H702.326H702.521H702.718H702.916H703.116H703.317H703.519H703.723H703.928H704.135H704.343H704.553H704.764H704.976H705.19H705.405H705.622H705.84H706.059H706.279H706.501H706.725H706.949H707.175H707.403H707.631H707.861H708.092H708.325H708.559H708.794H709.03H709.268H709.507H709.747H709.989H710.232H710.476H710.721H710.967H711.215H711.464H711.714H711.965H712.218H712.472H712.727H712.983H713.24H713.498H713.758H714.019H714.281H714.544H714.808H715.073H715.34H715.607H715.876H716.146H716.417H716.689H716.962H717.236H717.511H717.788H718.065H718.343H718.623H718.903H719.185H719.468H719.751H720.036H720.322H720.608H720.896H721.185H721.474H721.765H722.056H722.349H722.643H722.937H723.232H723.529H723.826H724.124H724.424H724.724H725.025H725.327H725.629H725.933H726.238H726.543H726.85H727.157H727.465H727.774H728.084H728.394H728.706H729.018H729.331H729.645H729.96H730.275H730.592H730.909H731.227H731.546H731.865H732.185H732.506H732.828H733.151H733.474H733.798H734.123H734.448H734.774H735.101H735.429H735.757H736.086H736.416H736.746H737.077H737.409H737.741H738.074H738.408H738.742H739.077H739.412H739.749H740.085H740.423H740.761H741.099H741.439H741.778H742.119H742.46H742.801H743.143H743.486H743.829H744.173H744.517H744.862H745.207H745.553H745.899H746.246H746.593H746.941H747.289H747.638H747.988H748.337H748.687H749.038H749.389H749.741H750.093H750.445H750.798H751.151H751.505H751.859H752.213H752.568H752.923H753.279H753.635H753.991H754.348H754.705H755.062H755.42H755.778H756.136H756.495H756.854H757.213H757.573H757.933H758.293H758.653H759.014H759.375H759.736H760.098H760.46H760.822H761.184H761.547H761.909H762.272H762.636H762.999H763.363H763.726H764.09H764.454H764.819H765.183H765.548H765.913H766.278H766.643H767.008H767.374H767.739H768.105H768.471H768.836H769.202H769.568H769.935H770.301H770.667H771.034H771.4H771.767H772.133H772.5H772.866H773.233H773.6H773.966H774.333H774.7H775.067H775.433H775.8H776.167H776.533H776.9H777.267H777.633H778H778.366H778.733H779.099H779.465H779.831H780.197H780.563H780.929H781.295H781.661H782.026H782.392H782.757H783.122H783.487H783.852H784.217H784.581H784.946H785.31H785.674H786.038H786.401H786.765H787.128H787.491H787.854H788.216H788.579H788.941H789.303H789.664H790.026H790.387H790.748H791.108H791.468H791.828H792.188H792.547H792.906H793.265H793.624H793.982H794.339H794.697H795.054H795.411H795.767H796.123H796.479H796.834H797.189H797.543H797.897H798.251H798.604H798.957H799.31H799.662H800.013H800.364H800.715H801.065H801.415H801.764H802.113H802.462H802.81H803.157H803.504H803.85H804.196H804.542H804.886H805.231H805.575H805.918H806.261H806.603H806.944H807.285H807.626H807.966H808.305H808.644H808.982H809.319H809.656H809.993H810.328H810.663H810.998H811.331H811.664H811.997H812.329H812.66H812.99H813.32H813.649H813.978H814.305H814.632H814.959H815.284H815.609H815.933H816.257H816.579H816.901H817.222H817.543H817.862H818.181H818.499H818.816H819.133H819.449H819.764H820.078H820.391H820.703H821.015H821.326H821.636H821.945H822.253H822.56H822.867H823.172H823.477H823.781H824.084H824.386H824.687H824.988H825.287H825.585H825.883H826.179H826.475H826.77H827.063H827.356H827.648H827.939H828.228H828.517H828.805H829.092H829.378H829.663H829.946H830.123L884.926 351.5H812.329L806.754 317.253L806.412 315.155H804.286H719.763H717.685L717.305 317.197L710.923 351.5ZM729.973 252.174L729.507 255.071H732.441H791.608H794.562L794.073 252.158L773.788 131.289L773.438 129.202H771.322H751.882H749.752L749.413 131.305L729.973 252.174Z" stroke="#1D1D20" stroke-opacity="0.3" stroke-width="5"/>
</g>
<defs>
<filter id="filter0_dddd_40_11" x="0" y="0" width="392.726" height="424" filterUnits="userSpaceOnUse" color-interpolation-filters="sRGB">
<feFlood flood-opacity="0" result="BackgroundImageFix"/>
<feColorMatrix in="SourceAlpha" type="matrix" values="0 0 0 0 0 0 0 0 0 0 0 0 0 0 0 0 0 0 127 0" result="hardAlpha"/>
<feOffset dx="20" dy="20"/>
<feGaussianBlur stdDeviation="25"/>
<feComposite in2="hardAlpha" operator="out"/>
<feColorMatrix type="matrix" values="0 0 0 0 1 0 0 0 0 0.639216 0 0 0 0 0.305882 0 0 0 0.15 0"/>
<feBlend mode="normal" in2="BackgroundImageFix" result="effect1_dropShadow_40_11"/>
<feColorMatrix in="SourceAlpha" type="matrix" values="0 0 0 0 0 0 0 0 0 0 0 0 0 0 0 0 0 0 127 0" result="hardAlpha"/>
<feOffset dx="-20" dy="-20"/>
<feGaussianBlur stdDeviation="25"/>
<feComposite in2="hardAlpha" operator="out"/>
<feColorMatrix type="matrix" values="0 0 0 0 1 0 0 0 0 0.243137 0 0 0 0 0.243137 0 0 0 0.15 0"/>
<feBlend mode="normal" in2="effect1_dropShadow_40_11" result="effect2_dropShadow_40_11"/>
<feColorMatrix in="SourceAlpha" type="matrix" values="0 0 0 0 0 0 0 0 0 0 0 0 0 0 0 0 0 0 127 0" result="hardAlpha"/>
<feOffset dx="20" dy="-20"/>
<feGaussianBlur stdDeviation="25"/>
<feComposite in2="hardAlpha" operator="out"/>
<feColorMatrix type="matrix" values="0 0 0 0 1 0 0 0 0 0.639216 0 0 0 0 0.305882 0 0 0 0.15 0"/>
<feBlend mode="normal" in2="effect2_dropShadow_40_11" result="effect3_dropShadow_40_11"/>
<feColorMatrix in="SourceAlpha" type="matrix" values="0 0 0 0 0 0 0 0 0 0 0 0 0 0 0 0 0 0 127 0" result="hardAlpha"/>
<feOffset dx="-20" dy="20"/>
<feGaussianBlur stdDeviation="25"/>
<feComposite in2="hardAlpha" operator="out"/>
<feColorMatrix type="matrix" values="0 0 0 0 1 0 0 0 0 0.243137 0 0 0 0 0.243137 0 0 0 0.15 0"/>
<feBlend mode="normal" in2="effect3_dropShadow_40_11" result="effect4_dropShadow_40_11"/>
<feBlend mode="normal" in="SourceGraphic" in2="effect4_dropShadow_40_11" result="shape"/>
</filter>
<filter id="filter1_dddd_40_11" x="307.726" y="0" width="342.513" height="424" filterUnits="userSpaceOnUse" color-interpolation-filters="sRGB">
<feFlood flood-opacity="0" result="BackgroundImageFix"/>
<feColorMatrix in="SourceAlpha" type="matrix" values="0 0 0 0 0 0 0 0 0 0 0 0 0 0 0 0 0 0 127 0" result="hardAlpha"/>
<feOffset dx="20" dy="20"/>
<feGaussianBlur stdDeviation="25"/>
<feComposite in2="hardAlpha" operator="out"/>
<feColorMatrix type="matrix" values="0 0 0 0 0.556863 0 0 0 0 1 0 0 0 0 0.286275 0 0 0 0.15 0"/>
<feBlend mode="normal" in2="BackgroundImageFix" result="effect1_dropShadow_40_11"/>
<feColorMatrix in="SourceAlpha" type="matrix" values="0 0 0 0 0 0 0 0 0 0 0 0 0 0 0 0 0 0 127 0" result="hardAlpha"/>
<feOffset dx="-20" dy="-20"/>
<feGaussianBlur stdDeviation="25"/>
<feComposite in2="hardAlpha" operator="out"/>
<feColorMatrix type="matrix" values="0 0 0 0 1 0 0 0 0 0.639216 0 0 0 0 0.305882 0 0 0 0.15 0"/>
<feBlend mode="normal" in2="effect1_dropShadow_40_11" result="effect2_dropShadow_40_11"/>
<feColorMatrix in="SourceAlpha" type="matrix" values="0 0 0 0 0 0 0 0 0 0 0 0 0 0 0 0 0 0 127 0" result="hardAlpha"/>
<feOffset dx="20" dy="-20"/>
<feGaussianBlur stdDeviation="25"/>
<feComposite in2="hardAlpha" operator="out"/>
<feColorMatrix type="matrix" values="0 0 0 0 0.556863 0 0 0 0 1 0 0 0 0 0.286275 0 0 0 0.15 0"/>
<feBlend mode="normal" in2="effect2_dropShadow_40_11" result="effect3_dropShadow_40_11"/>
<feColorMatrix in="SourceAlpha" type="matrix" values="0 0 0 0 0 0 0 0 0 0 0 0 0 0 0 0 0 0 127 0" result="hardAlpha"/>
<feOffset dx="-20" dy="20"/>
<feGaussianBlur stdDeviation="25"/>
<feComposite in2="hardAlpha" operator="out"/>
<feColorMatrix type="matrix" values="0 0 0 0 1 0 0 0 0 0.639216 0 0 0 0 0.305882 0 0 0 0.15 0"/>
<feBlend mode="normal" in2="effect3_dropShadow_40_11" result="effect4_dropShadow_40_11"/>
<feBlend mode="normal" in="SourceGraphic" in2="effect4_dropShadow_40_11" result="shape"/>
</filter>
<filter id="filter2_dddd_40_11" x="565.239" y="0" width="392.726" height="424" filterUnits="userSpaceOnUse" color-interpolation-filters="sRGB">
<feFlood flood-opacity="0" result="BackgroundImageFix"/>
<feColorMatrix in="SourceAlpha" type="matrix" values="0 0 0 0 0 0 0 0 0 0 0 0 0 0 0 0 0 0 127 0" result="hardAlpha"/>
<feOffset dx="20" dy="20"/>
<feGaussianBlur stdDeviation="25"/>
<feComposite in2="hardAlpha" operator="out"/>
<feColorMatrix type="matrix" values="0 0 0 0 0.305882 0 0 0 0 1 0 0 0 0 0.584314 0 0 0 0.15 0"/>
<feBlend mode="normal" in2="BackgroundImageFix" result="effect1_dropShadow_40_11"/>
<feColorMatrix in="SourceAlpha" type="matrix" values="0 0 0 0 0 0 0 0 0 0 0 0 0 0 0 0 0 0 127 0" result="hardAlpha"/>
<feOffset dx="-20" dy="-20"/>
<feGaussianBlur stdDeviation="25"/>
<feComposite in2="hardAlpha" operator="out"/>
<feColorMatrix type="matrix" values="0 0 0 0 0.556863 0 0 0 0 1 0 0 0 0 0.286275 0 0 0 0.15 0"/>
<feBlend mode="normal" in2="effect1_dropShadow_40_11" result="effect2_dropShadow_40_11"/>
<feColorMatrix in="SourceAlpha" type="matrix" values="0 0 0 0 0 0 0 0 0 0 0 0 0 0 0 0 0 0 127 0" result="hardAlpha"/>
<feOffset dx="20" dy="-20"/>
<feGaussianBlur stdDeviation="25"/>
<feComposite in2="hardAlpha" operator="out"/>
<feColorMatrix type="matrix" values="0 0 0 0 0.305882 0 0 0 0 1 0 0 0 0 0.584314 0 0 0 0.15 0"/>
<feBlend mode="normal" in2="effect2_dropShadow_40_11" result="effect3_dropShadow_40_11"/>
<feColorMatrix in="SourceAlpha" type="matrix" values="0 0 0 0 0 0 0 0 0 0 0 0 0 0 0 0 0 0 127 0" result="hardAlpha"/>
<feOffset dx="-20" dy="20"/>
<feGaussianBlur stdDeviation="25"/>
<feComposite in2="hardAlpha" operator="out"/>
<feColorMatrix type="matrix" values="0 0 0 0 0.556863 0 0 0 0 1 0 0 0 0 0.286275 0 0 0 0.15 0"/>
<feBlend mode="normal" in2="effect3_dropShadow_40_11" result="effect4_dropShadow_40_11"/>
<feBlend mode="normal" in="SourceGraphic" in2="effect4_dropShadow_40_11" result="shape"/>
</filter>
<linearGradient id="paint0_linear_40_11" x1="322.726" y1="212" x2="70" y2="212" gradientUnits="userSpaceOnUse">
<stop offset="0.5" stop-color="#FFA34E"/>
<stop offset="1" stop-color="#FF3E3E"/>
</linearGradient>
<linearGradient id="paint1_linear_40_11" x1="580.239" y1="212" x2="377.726" y2="212" gradientUnits="userSpaceOnUse">
<stop stop-color="#8EFF49"/>
<stop offset="1" stop-color="#FFA34E"/>
</linearGradient>
<linearGradient id="paint2_linear_40_11" x1="887.965" y1="212" x2="635.239" y2="212" gradientUnits="userSpaceOnUse">
<stop stop-color="#4EFF95"/>
<stop offset="1" stop-color="#8EFF49"/>
</linearGradient>
</defs>
</svg>
