<svg width="820" height="390" viewBox="0 0 820 390" fill="none" xmlns="http://www.w3.org/2000/svg">
<ellipse cx="314.15" cy="194.5" rx="5.5" ry="5.5" stroke="#EEEEEE" stroke-width="2"/>
<ellipse cx="300.4" cy="193.95" rx="4.4" ry="4.4" stroke="#EEEEEE" stroke-width="2"/>
<ellipse cx="322.4" cy="182.4" rx="4.4" ry="4.4" stroke="#EEEEEE" stroke-width="2"/>
<ellipse cx="320.2" cy="206.6" rx="4.4" ry="4.4" stroke="#EEEEEE" stroke-width="2"/>
<path d="M307 198.9V200.407C307 201.547 307.488 202.634 308.34 203.391L308.462 203.5C309.115 204.08 309.957 204.4 310.83 204.4V204.4C311.888 204.4 312.892 203.93 313.569 203.117L313.875 202.75" stroke="#EEEEEE" stroke-width="2" stroke-linecap="round"/>
<path d="M320.686 198.577L322.073 197.989C323.123 197.543 323.932 196.67 324.297 195.589L324.349 195.435C324.628 194.607 324.593 193.706 324.252 192.903V192.903C323.839 191.929 323.014 191.189 322.002 190.883L321.544 190.745" stroke="#EEEEEE" stroke-width="2" stroke-linecap="round"/>
<path d="M314.386 186.322L313.198 185.394C312.299 184.692 311.143 184.408 310.021 184.613L309.861 184.642C309.002 184.799 308.231 185.266 307.693 185.954V185.954C307.042 186.788 306.795 187.868 307.018 188.902L307.119 189.369" stroke="#EEEEEE" stroke-width="2" stroke-linecap="round"/>
<path d="M304.8 194.225H308.65M317.175 189.825L319.925 185.975M316.9 199.45L318.275 202.475" stroke="#EEEEEE" stroke-width="2" stroke-linecap="round"/>
<circle cx="423.756" cy="115.244" r="11.7556" stroke="#EEEEEE" stroke-width="2"/>
<path d="M416.163 97.3259V105.83M421.933 91.2519V100.059M428.311 94.8963V100.97M434.081 87V108.867M416.163 92.163V87" stroke="#EEEEEE" stroke-width="2"/>
<path d="M199.382 161.821L203.452 164.365M205.486 157.243H200.399M199.382 152.665L203.452 150.122M195.821 149.104L198.365 145.035M191.243 148.087V143M186.665 149.104L184.122 145.035M183.104 152.665L179.035 150.122M182.087 157.243H177M183.104 161.821L179.035 164.365M187.937 168.18C189.499 169.133 193.183 169.317 194.804 168.18M187.937 170.215C189.499 171.167 193.183 171.352 194.804 170.215M187.937 166.145V163.602C187.291 163.069 186.784 162.568 186.379 162.059C184.239 159.374 184.353 154.338 186.985 152.134V152.134C189.581 149.962 193.467 150.201 195.907 152.546C196.025 152.66 196.136 152.779 196.241 152.903C198.24 155.281 198.286 159.106 196.575 161.699C196.153 162.338 195.586 162.946 194.804 163.602V166.145H187.937Z" stroke="#EEEEEE" stroke-width="2"/>
<path d="M725 111.618H727.276M732.967 111.618H730.976M727.276 111.618C728.786 116.333 730.27 118.518 735.767 118.952C736.552 119.014 737.343 118.942 738.109 118.762C743.444 117.507 745.745 115.675 746.723 110.487C746.866 109.729 746.884 108.952 746.785 108.187C746.3 104.448 745.231 102.783 742.642 100.805M727.276 111.618H730.976M730.976 111.618C732.261 113.774 733.211 114.937 735.261 115.402C736.18 115.61 737.142 115.524 738.047 115.263C740.784 114.474 742.011 113.248 742.678 110.552C742.876 109.756 742.921 108.923 742.777 108.116C742.466 106.372 741.743 105.168 740.081 103.366" stroke="#EEEEEE" stroke-width="2" stroke-linecap="round"/>
<path d="M741.927 100.236C741.927 101.726 740.718 102.935 739.228 102.935C737.737 102.935 736.528 101.726 736.528 100.236C736.528 98.7451 737.737 97.5366 739.228 97.5366C740.718 97.5366 741.927 98.7451 741.927 100.236Z" stroke="#EEEEEE" stroke-width="2"/>
<rect x="729.455" y="100.983" width="7.39376" height="2.28856" transform="rotate(45 729.455 100.983)" stroke="#EEEEEE" stroke-width="2"/>
<path d="M728.415 105.251L730.279 107.116L729.133 108.263L727.268 106.398L728.415 105.251Z" stroke="#EEEEEE" stroke-width="2"/>
<rect x="744.252" y="89.4142" width="2.63712" height="2.28856" transform="rotate(45 744.252 89.4142)" stroke="#EEEEEE" stroke-width="2"/>
<path d="M730.691 101.374L741.22 90.561L744.919 94.2602L741.504 97.9594M736.951 102.512L734.39 105.073M726.138 123H747.195C747.195 123 748.618 119.301 744.634 119.301C740.65 119.301 730.975 119.301 728.13 119.301C725.285 119.301 726.138 123 726.138 123Z" stroke="#EEEEEE" stroke-width="2" stroke-linecap="round"/>
<path d="M392.317 309.641C391.275 308.872 390.254 308.156 389.257 307.491M374.715 315.204C368.075 310.368 365.335 304.356 368.395 301.853C370.671 299.99 375.432 300.281 381.806 303.243M388.979 304.078C388.029 300.102 385.085 295.733 383.694 294.62C382.303 293.508 380.961 294.137 380.078 294.62M381.806 303.243C381.806 303.243 392.873 298.236 396.768 302.965C400.662 307.694 385.641 317.708 385.641 317.708M381.806 303.243C384.095 304.307 386.592 305.715 389.257 307.491M377.018 298.793C375.778 301.887 375.464 303.344 375.342 306.751M374.514 310.197C374.514 310.197 373.958 328 382.303 328C390.648 328 389.257 307.491 389.257 307.491M378.965 304.078C378.965 304.078 367.282 311.866 367.004 317.152C366.947 318.993 367.447 319.711 368.951 320.211M373.402 321.602C376.974 321.29 378.795 320.339 381.94 318.912M377.296 316.873C386.734 321.172 394.963 324.368 397.046 317.986M395.655 313.257L393.708 311.032M378.548 299.071V299.071C379.854 299.071 380.912 298.012 380.912 296.706V296.428C380.912 295.122 379.854 294.064 378.548 294.064V294.064C377.242 294.064 376.183 295.122 376.183 296.428V296.706C376.183 298.012 377.242 299.071 378.548 299.071ZM371.037 324.106V324.106C372.343 324.106 373.402 323.047 373.402 321.741V321.463C373.402 320.157 372.343 319.099 371.037 319.099V319.099C369.732 319.099 368.673 320.157 368.673 321.463V321.741C368.673 323.047 369.732 324.106 371.037 324.106ZM396.907 317.986V317.986C398.213 317.986 399.271 316.927 399.271 315.622V315.344C399.271 314.038 398.213 312.979 396.907 312.979V312.979C395.601 312.979 394.542 314.038 394.542 315.343V315.622C394.542 316.927 395.601 317.986 396.907 317.986ZM385.085 311.032V311.032C385.085 312.722 383.715 314.092 382.025 314.092V314.092C380.335 314.092 378.965 312.722 378.965 311.032V311.032C378.965 309.342 380.335 307.972 382.025 307.972V307.972C383.715 307.972 385.085 309.342 385.085 311.032Z" stroke="#EEEEEE" stroke-width="2"/>
<path d="M777 369.76C782.455 366.161 782.834 365.814 789.926 369.76C793.433 371.303 798.657 373.522 801.446 367.512C802.165 365.399 800.826 361.524 798.355 356.835C796.673 352.162 797.061 348.929 799.76 347M788.521 381C791.034 379.143 792.018 377.763 791.05 373.132M787.397 365.264C784.868 361.331 790.207 354.025 796.107 357.116M802.851 360.488C806.953 361.353 809.212 361.145 811.562 358.24M800.884 350.091L808.19 357.397M799.76 353.463L804.537 358.24M794.14 359.083L798.917 364.14M790.769 360.488L797.793 367.512M789.645 363.579L794.421 368.636M784.025 369.198L789.083 374.256M780.653 370.322L787.959 377.628" stroke="#EEEEEE" stroke-width="2"/>
<path d="M296.692 102.751C293.681 100.28 292.032 100.35 289.495 103.439M296.692 102.751C301.224 100.277 303.183 100.39 304.4 104.815M296.692 102.751V109.86M289.495 103.439C286.676 103.877 285.667 104.758 285.597 108.255C283.12 109.975 282.071 111.133 283.992 115.363C284.198 118.9 285.006 120.244 288.12 121.096M289.495 103.439C289.488 106.93 289.849 108.577 292.706 109.631M288.12 121.096C287.782 115.503 289.431 115.033 292.706 114.675C292.554 112.217 293.248 112.08 294.54 111.924M288.12 121.096C291.341 124.69 293.222 125.236 296.833 121.096M305.318 121.096C301.57 125.701 299.887 123.938 296.833 121.325L296.783 117.284M305.318 121.096V118.573M305.318 121.096C308.63 121.145 309.95 119.256 309.674 114.871M307.611 116.51C311.04 114.302 311.641 112.678 308.298 108.484M304.63 109.86C307.995 109.915 309.108 109.422 307.611 106.191C306.984 104.813 305.537 104.158 303.938 103.439M293.164 119.261C294 117.977 294.573 117.349 296.783 117.284M296.783 117.284L296.745 114.217M296.745 114.217C298.71 114.308 299.808 114.389 301.649 115.363M296.745 114.217L296.692 109.86M300.961 119.261C301.054 115.798 301.784 114.437 304.859 113.529M296.692 109.86C298.29 109.593 299.282 109.159 299.856 108.377M300.502 104.586C300.599 106.366 300.454 107.561 299.856 108.377M299.856 108.377L301.649 110.089M290.183 107.796C289.316 108.629 288.838 109.105 288.349 110.318" stroke="#EEEEEE" stroke-width="2"/>
<path d="M229 332.063V326.793C229 326.241 229.448 325.793 230 325.793H238.667M229 332.063V336.243M229 332.063H233.964M243.631 332.063V326.793C243.631 326.241 243.183 325.793 242.631 325.793H238.667M243.631 332.063V336.243M243.631 332.063H238.928M229 336.243H243.631M229 336.243V340.423M243.631 336.243V343.604C243.631 344.156 243.183 344.604 242.631 344.604H238.928M229 340.423V343.604C229 344.156 229.448 344.604 230 344.604H233.964M229 340.423H238.928M238.928 340.423V332.063M238.928 340.423V344.604M238.928 332.063H233.964M238.928 344.604H238.405M233.964 344.604V332.063M233.964 344.604H238.405M238.667 325.793V320.657C238.667 320.43 238.744 320.21 238.886 320.032L239.411 319.375C239.601 319.138 239.889 319 240.192 319H253.947C254.201 319 254.445 319.097 254.631 319.27L258.206 322.623C258.408 322.812 258.523 323.076 258.523 323.352V346.541C258.523 346.806 258.417 347.06 258.23 347.248L257.77 347.707C257.583 347.895 257.328 348 257.063 348H239.865C239.599 348 239.345 347.895 239.158 347.707L238.698 347.248C238.511 347.06 238.405 346.806 238.405 346.541V344.604M253.82 321.09V322.964C253.82 323.516 254.268 323.964 254.82 323.964H256.432M245.721 336.243L246.54 335.915C246.845 335.793 247.071 335.53 247.144 335.21L248.04 331.291C248.281 330.232 249.8 330.264 249.998 331.332L250.971 336.588C251.163 337.622 252.615 337.698 252.913 336.69L253.26 335.522C253.477 334.787 254.459 334.654 254.865 335.303V335.303C255.027 335.563 255.312 335.721 255.619 335.721H256.171" stroke="#EEEEEE" stroke-width="2"/>
<path d="M653 337.063V331.793C653 331.241 653.448 330.793 654 330.793H662.667M653 337.063V341.243M653 337.063H657.964M667.631 337.063V331.793C667.631 331.241 667.183 330.793 666.631 330.793H662.667M667.631 337.063V341.243M667.631 337.063H662.928M653 341.243H667.631M653 341.243V345.423M667.631 341.243V348.604C667.631 349.156 667.183 349.604 666.631 349.604H662.928M653 345.423V348.604C653 349.156 653.448 349.604 654 349.604H657.964M653 345.423H662.928M662.928 345.423V337.063M662.928 345.423V349.604M662.928 337.063H657.964M662.928 349.604H662.405M657.964 349.604V337.063M657.964 349.604H662.405M662.667 330.793V325.657C662.667 325.43 662.744 325.21 662.886 325.032L663.411 324.375C663.601 324.138 663.889 324 664.192 324H677.947C678.201 324 678.445 324.097 678.631 324.27L682.206 327.623C682.408 327.812 682.523 328.076 682.523 328.352V351.541C682.523 351.806 682.417 352.06 682.23 352.248L681.77 352.707C681.583 352.895 681.328 353 681.063 353H663.865C663.599 353 663.345 352.895 663.158 352.707L662.698 352.248C662.511 352.06 662.405 351.806 662.405 351.541V349.604M677.82 326.09V327.964C677.82 328.516 678.268 328.964 678.82 328.964H680.432M669.721 341.243L670.54 340.915C670.845 340.793 671.071 340.53 671.144 340.21L672.04 336.291C672.281 335.232 673.8 335.264 673.998 336.332L674.971 341.588C675.163 342.622 676.615 342.698 676.913 341.69L677.26 340.522C677.477 339.787 678.459 339.654 678.865 340.303V340.303C679.027 340.563 679.312 340.721 679.619 340.721H680.171" stroke="#EEEEEE" stroke-width="2"/>
<path d="M681.692 201.751C678.681 199.28 677.032 199.35 674.495 202.439M681.692 201.751C686.224 199.277 688.183 199.39 689.4 203.815M681.692 201.751V208.86M674.495 202.439C671.676 202.877 670.667 203.758 670.597 207.255C668.12 208.975 667.071 210.133 668.992 214.363C669.198 217.9 670.006 219.244 673.12 220.096M674.495 202.439C674.488 205.93 674.849 207.577 677.706 208.631M673.12 220.096C672.782 214.503 674.431 214.033 677.706 213.675C677.554 211.217 678.248 211.08 679.54 210.924M673.12 220.096C676.341 223.69 678.222 224.236 681.833 220.096M690.318 220.096C686.57 224.701 684.887 222.938 681.833 220.325L681.783 216.284M690.318 220.096V217.573M690.318 220.096C693.63 220.145 694.95 218.256 694.674 213.871M692.611 215.51C696.04 213.302 696.641 211.678 693.298 207.484M689.63 208.86C692.995 208.915 694.108 208.422 692.611 205.191C691.984 203.813 690.537 203.158 688.938 202.439M678.164 218.261C679 216.977 679.573 216.349 681.783 216.284M681.783 216.284L681.745 213.217M681.745 213.217C683.71 213.308 684.808 213.389 686.649 214.363M681.745 213.217L681.692 208.86M685.961 218.261C686.054 214.798 686.784 213.437 689.859 212.529M681.692 208.86C683.29 208.593 684.282 208.159 684.856 207.377M685.502 203.586C685.599 205.366 685.454 206.561 684.856 207.377M684.856 207.377L686.649 209.089M675.183 206.796C674.316 207.629 673.838 208.105 673.349 209.318" stroke="#EEEEEE" stroke-width="2"/>
<path d="M92 282.76C97.4552 279.161 97.8339 278.814 104.926 282.76C108.433 284.303 113.657 286.522 116.446 280.512C117.165 278.399 115.826 274.524 113.355 269.835C111.673 265.162 112.061 261.929 114.76 260M103.521 294C106.034 292.143 107.018 290.763 106.05 286.132M102.397 278.264C99.8678 274.331 105.207 267.025 111.107 270.116M117.851 273.488C121.953 274.353 124.212 274.145 126.562 271.24M115.884 263.091L123.19 270.397M114.76 266.463L119.537 271.24M109.14 272.083L113.917 277.14M105.769 273.488L112.793 280.512M104.645 276.579L109.421 281.636M99.0248 282.198L104.083 287.256M95.6529 283.322L102.959 290.628" stroke="#EEEEEE" stroke-width="2"/>
<path d="M632.317 69.6411C631.275 68.8721 630.254 68.1559 629.257 67.4913M614.715 75.2044C608.075 70.3679 605.335 64.356 608.395 61.8525C610.671 59.9899 615.432 60.2809 621.806 63.2433M628.979 64.0778C628.029 60.1025 625.085 55.7329 623.694 54.6202C622.303 53.5076 620.961 54.1369 620.078 54.6202M621.806 63.2433C621.806 63.2433 632.873 58.2364 636.768 62.9652C640.662 67.694 625.641 77.7079 625.641 77.7079M621.806 63.2433C624.095 64.307 626.592 65.715 629.257 67.4913M617.018 58.7927C615.778 61.8871 615.464 63.344 615.342 66.7509M614.514 70.1974C614.514 70.1974 613.958 88 622.303 88C630.648 88 629.257 67.4913 629.257 67.4913M618.965 64.0778C618.965 64.0778 607.282 71.8664 607.004 77.1516C606.947 78.9929 607.447 79.711 608.951 80.2114M613.402 81.6022C616.974 81.2896 618.795 80.3393 621.94 78.9116M617.296 76.8734C626.734 81.1718 634.963 84.3676 637.046 77.9861M635.655 73.2573L633.708 71.0319M618.548 59.0709V59.0709C619.854 59.0709 620.912 58.0123 620.912 56.7065V56.4283C620.912 55.1225 619.854 54.0639 618.548 54.0639V54.0639C617.242 54.0639 616.183 55.1225 616.183 56.4283V56.7065C616.183 58.0123 617.242 59.0709 618.548 59.0709ZM611.037 84.1057V84.1057C612.343 84.1057 613.402 83.0471 613.402 81.7413V81.4631C613.402 80.1573 612.343 79.0987 611.037 79.0987V79.0987C609.732 79.0987 608.673 80.1573 608.673 81.4631V81.7413C608.673 83.0471 609.732 84.1057 611.037 84.1057ZM636.907 77.9861V77.9861C638.213 77.9861 639.271 76.9275 639.271 75.6217V75.3435C639.271 74.0377 638.213 72.9791 636.907 72.9791V72.9791C635.601 72.9791 634.542 74.0377 634.542 75.3435V75.6217C634.542 76.9275 635.601 77.9861 636.907 77.9861ZM625.085 71.0319V71.0319C625.085 72.7218 623.715 74.0918 622.025 74.0918V74.0918C620.335 74.0918 618.965 72.7218 618.965 71.0319V71.0319C618.965 69.3421 620.335 67.9721 622.025 67.9721V67.9721C623.715 67.9721 625.085 69.3421 625.085 71.0319Z" stroke="#EEEEEE" stroke-width="2"/>
<path d="M466.382 249.821L470.452 252.365M472.486 245.243H467.399M466.382 240.665L470.452 238.122M462.821 237.104L465.365 233.035M458.243 236.087V231M453.665 237.104L451.122 233.035M450.104 240.665L446.035 238.122M449.087 245.243H444M450.104 249.821L446.035 252.365M454.937 256.18C456.499 257.133 460.183 257.317 461.804 256.18M454.937 258.215C456.499 259.167 460.183 259.352 461.804 258.215M454.937 254.145V251.602C454.291 251.069 453.784 250.568 453.379 250.059C451.239 247.374 451.353 242.338 453.985 240.134V240.134C456.581 237.962 460.467 238.201 462.907 240.546C463.025 240.66 463.136 240.779 463.241 240.903C465.24 243.281 465.286 247.106 463.575 249.699C463.153 250.338 462.586 250.946 461.804 251.602V254.145H454.937Z" stroke="#EEEEEE" stroke-width="2"/>
<path d="M513 180.618H515.276M520.967 180.618H518.976M515.276 180.618C516.786 185.333 518.27 187.518 523.767 187.952C524.552 188.014 525.343 187.942 526.109 187.762C531.444 186.507 533.745 184.675 534.723 179.487C534.866 178.729 534.884 177.952 534.785 177.187C534.3 173.447 533.231 171.783 530.642 169.805M515.276 180.618H518.976M518.976 180.618C520.261 182.774 521.211 183.937 523.261 184.402C524.18 184.61 525.142 184.524 526.047 184.263C528.784 183.474 530.011 182.248 530.678 179.552C530.876 178.756 530.921 177.923 530.777 177.116C530.466 175.372 529.743 174.168 528.081 172.366" stroke="#EEEEEE" stroke-width="2" stroke-linecap="round"/>
<path d="M529.927 169.236C529.927 170.726 528.718 171.935 527.228 171.935C525.737 171.935 524.528 170.726 524.528 169.236C524.528 167.745 525.737 166.537 527.228 166.537C528.718 166.537 529.927 167.745 529.927 169.236Z" stroke="#EEEEEE" stroke-width="2"/>
<rect x="517.455" y="169.983" width="7.39376" height="2.28856" transform="rotate(45 517.455 169.983)" stroke="#EEEEEE" stroke-width="2"/>
<path d="M516.415 174.252L518.279 176.116L517.133 177.263L515.268 175.398L516.415 174.252Z" stroke="#EEEEEE" stroke-width="2"/>
<rect x="532.252" y="158.414" width="2.63712" height="2.28856" transform="rotate(45 532.252 158.414)" stroke="#EEEEEE" stroke-width="2"/>
<path d="M518.691 170.374L529.22 159.561L532.919 163.26L529.504 166.959M524.951 171.512L522.39 174.073M514.138 192H535.195C535.195 192 536.618 188.301 532.634 188.301C528.65 188.301 518.975 188.301 516.13 188.301C513.285 188.301 514.138 192 514.138 192Z" stroke="#EEEEEE" stroke-width="2" stroke-linecap="round"/>
<circle cx="793.756" cy="215.244" r="11.7556" stroke="#EEEEEE" stroke-width="2"/>
<path d="M786.163 197.326V205.83M791.933 191.252V200.059M798.311 194.896V200.97M804.081 187V208.867M786.163 192.163V187" stroke="#EEEEEE" stroke-width="2"/>
<ellipse cx="145.15" cy="84.5" rx="5.5" ry="5.5" stroke="#EEEEEE" stroke-width="2"/>
<ellipse cx="131.4" cy="83.95" rx="4.4" ry="4.4" stroke="#EEEEEE" stroke-width="2"/>
<ellipse cx="153.4" cy="72.4" rx="4.4" ry="4.4" stroke="#EEEEEE" stroke-width="2"/>
<ellipse cx="151.2" cy="96.6" rx="4.4" ry="4.4" stroke="#EEEEEE" stroke-width="2"/>
<path d="M138 88.9V90.4068C138 91.5474 138.488 92.6336 139.34 93.3914L139.462 93.4996C140.115 94.0796 140.957 94.4 141.83 94.4V94.4C142.888 94.4 143.892 93.9301 144.569 93.1173L144.875 92.75" stroke="#EEEEEE" stroke-width="2" stroke-linecap="round"/>
<path d="M151.686 88.5775L153.073 87.9887C154.123 87.5431 154.932 86.6697 155.297 85.5889L155.349 85.4345C155.628 84.6072 155.593 83.7063 155.252 82.9026V82.9026C154.839 81.9288 154.014 81.1888 153.002 80.883L152.544 80.7447" stroke="#EEEEEE" stroke-width="2" stroke-linecap="round"/>
<path d="M145.386 76.3219L144.198 75.3942C143.299 74.692 142.143 74.4076 141.021 74.6129L140.861 74.6422C140.002 74.7993 139.231 75.2661 138.693 75.9541V75.9541C138.042 76.7878 137.795 77.8677 138.018 78.9018L138.119 79.3692" stroke="#EEEEEE" stroke-width="2" stroke-linecap="round"/>
<path d="M135.8 84.225H139.65M148.175 79.825L150.925 75.975M147.9 89.45L149.275 92.475" stroke="#EEEEEE" stroke-width="2" stroke-linecap="round"/>
<ellipse cx="39.15" cy="355.5" rx="5.5" ry="5.5" stroke="#EEEEEE" stroke-width="2"/>
<ellipse cx="25.4" cy="354.95" rx="4.4" ry="4.4" stroke="#EEEEEE" stroke-width="2"/>
<ellipse cx="47.4" cy="343.4" rx="4.4" ry="4.4" stroke="#EEEEEE" stroke-width="2"/>
<ellipse cx="45.2" cy="367.6" rx="4.4" ry="4.4" stroke="#EEEEEE" stroke-width="2"/>
<path d="M32 359.9V361.407C32 362.547 32.4878 363.634 33.3403 364.391L33.462 364.5C34.1146 365.08 34.9573 365.4 35.8303 365.4V365.4C36.8883 365.4 37.8916 364.93 38.5689 364.117L38.875 363.75" stroke="#EEEEEE" stroke-width="2" stroke-linecap="round"/>
<path d="M45.6862 359.577L47.0732 358.989C48.1232 358.543 48.9324 357.67 49.2968 356.589L49.3489 356.435C49.6278 355.607 49.5935 354.706 49.2524 353.903V353.903C48.839 352.929 48.0144 352.189 47.0016 351.883L46.5439 351.745" stroke="#EEEEEE" stroke-width="2" stroke-linecap="round"/>
<path d="M39.3857 347.322L38.1983 346.394C37.2995 345.692 36.1433 345.408 35.0213 345.613L34.861 345.642C34.0022 345.799 33.2309 346.266 32.6934 346.954V346.954C32.0421 347.788 31.7947 348.868 32.0181 349.902L32.1191 350.369" stroke="#EEEEEE" stroke-width="2" stroke-linecap="round"/>
<path d="M29.8 355.225H33.65M42.175 350.825L44.925 346.975M41.9 360.45L43.275 363.475" stroke="#EEEEEE" stroke-width="2" stroke-linecap="round"/>
<circle cx="28.7556" cy="47.2444" r="11.7556" stroke="#EEEEEE" stroke-width="2"/>
<path d="M21.163 29.3259V37.8296M26.9333 23.2519V32.0593M33.3111 26.8963V32.9704M39.0815 19V40.8667M21.163 24.163V19" stroke="#EEEEEE" stroke-width="2"/>
<path d="M19 194.618H21.2764M26.9675 194.618H24.9756M21.2764 194.618C22.7857 199.333 24.2702 201.518 29.7673 201.952C30.5522 202.014 31.3428 201.942 32.1093 201.762C37.4439 200.507 39.745 198.675 40.7232 193.487C40.8661 192.729 40.8838 191.952 40.7846 191.187C40.2998 187.447 39.2312 185.783 36.6423 183.805M21.2764 194.618H24.9756M24.9756 194.618C26.2607 196.774 27.2112 197.937 29.2606 198.402C30.1795 198.61 31.1416 198.524 32.047 198.263C34.7844 197.474 36.0106 196.248 36.6784 193.552C36.8756 192.756 36.9208 191.923 36.7768 191.116C36.4656 189.372 35.743 188.168 34.0813 186.366" stroke="#EEEEEE" stroke-width="2" stroke-linecap="round"/>
<path d="M35.9268 183.236C35.9268 184.726 34.7184 185.935 33.2276 185.935C31.7369 185.935 30.5285 184.726 30.5285 183.236C30.5285 181.745 31.7369 180.537 33.2276 180.537C34.7184 180.537 35.9268 181.745 35.9268 183.236Z" stroke="#EEEEEE" stroke-width="2"/>
<rect x="23.4552" y="183.983" width="7.39376" height="2.28856" transform="rotate(45 23.4552 183.983)" stroke="#EEEEEE" stroke-width="2"/>
<path d="M22.4146 188.252L24.2794 190.116L23.1325 191.263L21.2678 189.398L22.4146 188.252Z" stroke="#EEEEEE" stroke-width="2"/>
<rect x="38.2519" y="172.414" width="2.63712" height="2.28856" transform="rotate(45 38.2519 172.414)" stroke="#EEEEEE" stroke-width="2"/>
<path d="M24.6909 184.374L35.2195 173.561L38.9187 177.26L35.5039 180.959M30.9511 185.512L28.3901 188.073M20.138 206H41.195C41.195 206 42.6177 202.301 38.634 202.301C34.6502 202.301 24.9753 202.301 22.1299 202.301C19.2846 202.301 20.138 206 20.138 206Z" stroke="#EEEEEE" stroke-width="2" stroke-linecap="round"/>
<path d="M286.382 40.8213L290.452 43.3647M292.486 36.2431H287.399M286.382 31.665L290.452 29.1216M282.821 28.1042L285.365 24.0347M278.243 27.0868V22M273.665 28.1042L271.122 24.0347M270.104 31.665L266.035 29.1216M269.087 36.2431H264M270.104 40.8213L266.035 43.3647M274.937 47.1798C276.499 48.1326 280.183 48.3174 281.804 47.1798M274.937 49.2146C276.499 50.1674 280.183 50.3522 281.804 49.2146M274.937 45.1451V42.6017C274.291 42.0687 273.784 41.5678 273.379 41.059C271.239 38.3737 271.353 33.3378 273.985 31.1344V31.1344C276.581 28.9623 280.467 29.2008 282.907 31.5464C283.025 31.6604 283.136 31.7793 283.241 31.9033C285.24 34.2808 285.286 38.1062 283.575 40.699C283.153 41.3379 282.586 41.9463 281.804 42.6017V45.1451H274.937Z" stroke="#EEEEEE" stroke-width="2"/>
<path d="M235.317 248.641C234.275 247.872 233.254 247.156 232.257 246.491M217.715 254.204C211.075 249.368 208.335 243.356 211.395 240.853C213.671 238.99 218.432 239.281 224.806 242.243M231.979 243.078C231.029 239.102 228.085 234.733 226.694 233.62C225.303 232.508 223.961 233.137 223.078 233.62M224.806 242.243C224.806 242.243 235.873 237.236 239.768 241.965C243.662 246.694 228.641 256.708 228.641 256.708M224.806 242.243C227.095 243.307 229.592 244.715 232.257 246.491M220.018 237.793C218.778 240.887 218.464 242.344 218.342 245.751M217.514 249.197C217.514 249.197 216.958 267 225.303 267C233.648 267 232.257 246.491 232.257 246.491M221.965 243.078C221.965 243.078 210.282 250.866 210.004 256.152C209.947 257.993 210.447 258.711 211.951 259.211M216.402 260.602C219.974 260.29 221.795 259.339 224.94 257.912M220.296 255.873C229.734 260.172 237.963 263.368 240.046 256.986M238.655 252.257L236.708 250.032M221.548 238.071V238.071C222.854 238.071 223.912 237.012 223.912 235.706V235.428C223.912 234.122 222.854 233.064 221.548 233.064V233.064C220.242 233.064 219.183 234.122 219.183 235.428V235.706C219.183 237.012 220.242 238.071 221.548 238.071ZM214.037 263.106V263.106C215.343 263.106 216.402 262.047 216.402 260.741V260.463C216.402 259.157 215.343 258.099 214.037 258.099V258.099C212.732 258.099 211.673 259.157 211.673 260.463V260.741C211.673 262.047 212.732 263.106 214.037 263.106ZM239.907 256.986V256.986C241.213 256.986 242.271 255.927 242.271 254.622V254.344C242.271 253.038 241.213 251.979 239.907 251.979V251.979C238.601 251.979 237.542 253.038 237.542 254.343V254.622C237.542 255.927 238.601 256.986 239.907 256.986ZM228.085 250.032V250.032C228.085 251.722 226.715 253.092 225.025 253.092V253.092C223.335 253.092 221.965 251.722 221.965 250.032V250.032C221.965 248.342 223.335 246.972 225.025 246.972V246.972C226.715 246.972 228.085 248.342 228.085 250.032Z" stroke="#EEEEEE" stroke-width="2"/>
<path d="M506 363.76C511.455 360.161 511.834 359.814 518.926 363.76C522.433 365.303 527.657 367.522 530.446 361.512C531.165 359.399 529.826 355.524 527.355 350.835C525.673 346.162 526.061 342.929 528.76 341M517.521 375C520.034 373.143 521.018 371.763 520.05 367.132M516.397 359.264C513.868 355.331 519.207 348.025 525.107 351.116M531.851 354.488C535.953 355.353 538.212 355.145 540.562 352.24M529.884 344.091L537.19 351.397M528.76 347.463L533.537 352.24M523.14 353.083L527.917 358.14M519.769 354.488L526.793 361.512M518.645 357.579L523.421 362.636M513.025 363.198L518.083 368.256M509.653 364.322L516.959 371.628" stroke="#EEEEEE" stroke-width="2"/>
<path d="M521.692 35.7513C518.681 33.2795 517.032 33.3495 514.495 36.4392M521.692 35.7513C526.224 33.2766 528.183 33.3904 529.4 37.8151M521.692 35.7513V42.8598M514.495 36.4392C511.676 36.8769 510.667 37.7581 510.597 41.2547C508.12 42.9746 507.071 44.1334 508.992 48.3632C509.198 51.9004 510.006 53.2436 513.12 54.0958M514.495 36.4392C514.488 39.9303 514.849 41.5771 517.706 42.6305M513.12 54.0958C512.782 48.5032 514.431 48.0326 517.706 47.6752C517.554 45.2166 518.248 45.0804 519.54 44.9236M513.12 54.0958C516.341 57.6901 518.222 58.2364 521.833 54.0958M530.318 54.0958C526.57 58.7014 524.887 56.9376 521.833 54.3251L521.783 50.2838M530.318 54.0958V51.5735M530.318 54.0958C533.63 54.1446 534.95 52.2555 534.674 47.871M532.611 49.5097C536.04 47.3025 536.641 45.6776 533.298 41.484M529.63 42.8598C532.995 42.9152 534.108 42.4225 532.611 39.1909C531.984 37.8126 530.537 37.1577 528.938 36.4392M518.164 52.2614C519 50.977 519.573 50.3493 521.783 50.2838M521.783 50.2838L521.745 47.2166M521.745 47.2166C523.71 47.3077 524.808 47.389 526.649 48.3632M521.745 47.2166L521.692 42.8598M525.961 52.2614C526.054 48.7976 526.784 47.4367 529.859 46.5287M521.692 42.8598C523.29 42.5929 524.282 42.159 524.856 41.3766M525.502 37.5858C525.599 39.3657 525.454 40.5607 524.856 41.3766M524.856 41.3766L526.649 43.0891M515.183 40.7961C514.316 41.6288 513.838 42.1048 513.349 43.3184" stroke="#EEEEEE" stroke-width="2"/>
<path d="M789 34.0631V28.7928C789 28.2405 789.448 27.7928 790 27.7928H798.667M789 34.0631V38.2432M789 34.0631H793.964M803.631 34.0631V28.7928C803.631 28.2405 803.183 27.7928 802.631 27.7928H798.667M803.631 34.0631V38.2432M803.631 34.0631H798.928M789 38.2432H803.631M789 38.2432V42.4234M803.631 38.2432V45.6036C803.631 46.1559 803.183 46.6036 802.631 46.6036H798.928M789 42.4234V45.6036C789 46.1559 789.448 46.6036 790 46.6036H793.964M789 42.4234H798.928M798.928 42.4234V34.0631M798.928 42.4234V46.6036M798.928 34.0631H793.964M798.928 46.6036H798.405M793.964 46.6036V34.0631M793.964 46.6036H798.405M798.667 27.7928V22.6571C798.667 22.43 798.744 22.2097 798.886 22.0324L799.411 21.3753C799.601 21.1381 799.889 21 800.192 21H813.947C814.201 21 814.445 21.0967 814.631 21.2705L818.206 24.6226C818.408 24.8117 818.523 25.0757 818.523 25.3522V48.5407C818.523 48.806 818.417 49.0603 818.23 49.2478L817.77 49.7071C817.583 49.8946 817.328 50 817.063 50H799.865C799.599 50 799.345 49.8946 799.158 49.7071L798.698 49.2478C798.511 49.0603 798.405 48.806 798.405 48.5407V46.6036M813.82 23.0901V24.964C813.82 25.5162 814.268 25.964 814.82 25.964H816.432M805.721 38.2432L806.54 37.9154C806.845 37.7935 807.071 37.5297 807.144 37.2097L808.04 33.2909C808.281 32.2324 809.8 32.264 809.998 33.3317L810.971 38.5884C811.163 39.6219 812.615 39.6982 812.913 38.6904L813.26 37.5216C813.477 36.7874 814.459 36.6538 814.865 37.3031V37.3031C815.027 37.5629 815.312 37.7207 815.619 37.7207H816.171" stroke="#EEEEEE" stroke-width="2"/>
</svg>
